<?xml version="1.0" encoding="UTF-8" standalone="no"?>
<svg
   xmlns:dc="http://purl.org/dc/elements/1.1/"
   xmlns:cc="http://creativecommons.org/ns#"
   xmlns:rdf="http://www.w3.org/1999/02/22-rdf-syntax-ns#"
   xmlns:svg="http://www.w3.org/2000/svg"
   xmlns="http://www.w3.org/2000/svg"
   xmlns:sodipodi="http://sodipodi.sourceforge.net/DTD/sodipodi-0.dtd"
   xmlns:inkscape="http://www.inkscape.org/namespaces/inkscape"
   width="512"
   height="512"
   viewBox="0 0 135.46666 135.46666"
   version="1.1"
   id="svg8"
   inkscape:version="1.0.2 (e86c870879, 2021-01-15, custom)"
   sodipodi:docname="vws.svg">
  <defs
     id="defs2" />
  <sodipodi:namedview
     id="base"
     pagecolor="#ffffff"
     bordercolor="#666666"
     borderopacity="1.0"
     inkscape:pageopacity="0.0"
     inkscape:pageshadow="2"
     inkscape:zoom="1.4"
     inkscape:cx="316.4655"
     inkscape:cy="238.26263"
     inkscape:document-units="px"
     inkscape:current-layer="layer1"
     inkscape:document-rotation="0"
     showgrid="false"
     units="px"
     inkscape:window-width="2560"
     inkscape:window-height="1417"
     inkscape:window-x="-8"
     inkscape:window-y="-8"
     inkscape:window-maximized="1"
     inkscape:snap-nodes="false" />
  <metadata
     id="metadata5">
    <rdf:RDF>
      <cc:Work
         rdf:about="">
        <dc:format>image/svg+xml</dc:format>
        <dc:type
           rdf:resource="http://purl.org/dc/dcmitype/StillImage" />
        <dc:title />
      </cc:Work>
    </rdf:RDF>
  </metadata>
  <g
     inkscape:label="Layer 1"
     inkscape:groupmode="layer"
     id="layer1">
    <path
       id="rect870"
       style="fill:#006cff;fill-opacity:1;stroke:#ffffff;stroke-width:0;stroke-linejoin:round"
       d="m 28.607622,75.365769 17.178833,28.646291 c 1.450587,2.41886 4.923034,4.36615 7.78561,4.36615 h 32.128873 c -1.207319,-0.24991 -2.380626,-1.17605 -3.319583,-2.78537 L 69.061289,82.763266 c -1.998627,-2.450433 -4.996627,-2.916264 -7.600253,-2.837545 l -22.103537,-0.128212 0.166477,-0.02087 h -3.420461 c -2.774283,0 -6.101029,-1.947284 -7.459616,-4.366144 l -0.02534,-0.04472 z" />
    <path
       id="rect859"
       style="fill:#68b764;fill-opacity:1;stroke:#ffffff;stroke-width:0;stroke-linejoin:round"
       d="m 6.277507,27.017157 c -2.7515597,0 -3.881813,1.931337 -2.5343542,4.330386 l 24.9004492,44.33296 c 1.347459,2.399049 4.64696,4.330385 7.398521,4.330385 h 3.392446 l -0.165113,0.0207 21.922507,0.127162 c 2.582301,-0.07807 5.555747,0.383942 7.538005,2.814305 l 13.210974,22.642605 c 2.215012,3.79639 5.745285,3.77582 7.915545,-0.0463 L 113.42815,64.055596 c 0.19177,-0.337751 0.3651,-0.694465 0.52244,-1.065101 L 131.7236,31.347543 c 1.34746,-2.399052 0.21672,-4.330386 -2.53485,-4.330386 H 99.310288 c -2.751553,0 -6.051556,1.931334 -7.399012,4.330386 L 67.733378,74.39509 43.55548,31.347543 c -1.347459,-2.399049 -4.647451,-4.330386 -7.399012,-4.330386 z" />
    <g
       aria-label="WS"
       id="text891"
       style="font-style:italic;font-variant:normal;font-weight:900;font-stretch:normal;font-size:15.1984px;line-height:1.25;font-family:'Segoe UI';-inkscape-font-specification:'Segoe UI Heavy Italic';fill:#ffffff;fill-opacity:1;stroke:none;stroke-width:0.379962">
      <path
         d="m 57.034573,99.369644 h -3.361755 l -0.252317,-6.129823 q 0,-0.319107 0.103895,-0.905373 l 0.04453,-0.259739 h -0.02968 q -0.02968,0.13358 -0.178106,0.534319 -0.141001,0.393318 -0.282002,0.697583 l -2.834858,6.063033 H 46.56341 L 46.273987,88.727796 h 3.376598 l -0.304265,6.293087 q -0.02968,0.460108 -0.155843,1.21706 h 0.04453 q 0.05195,-0.20037 0.200369,-0.60853 0.148422,-0.415581 0.259739,-0.653056 l 2.901647,-6.248561 h 3.480493 l 0.05937,6.337614 q 0,0.207791 -0.02969,0.601108 -0.02226,0.393318 -0.04453,0.556583 h 0.02968 l 0.378476,-1.202218 2.204065,-6.293087 h 3.302386 z"
         style="font-style:italic;font-variant:normal;font-weight:900;font-stretch:normal;font-family:'Segoe UI';-inkscape-font-specification:'Segoe UI Heavy Italic';fill:#ffffff;stroke-width:0.379962"
         id="path834" />
      <path
         d="m 69.108693,91.725918 q -0.786636,-0.437845 -1.410008,-0.615951 -0.623372,-0.178106 -1.254165,-0.178106 -0.504634,0 -0.801478,0.215212 -0.289422,0.215211 -0.289422,0.564003 0,0.326528 0.237475,0.564003 0.237475,0.237475 1.02411,0.667898 1.261586,0.667899 1.7588,1.380324 0.504634,0.705003 0.504634,1.795904 0,1.031532 -0.578845,1.840431 -0.571424,0.8089 -1.588114,1.202218 -1.009269,0.393318 -2.397014,0.393318 -1.009268,0 -1.892378,-0.222633 -0.875689,-0.230054 -1.536167,-0.586267 l 0.556582,-2.627067 q 1.417429,1.046374 2.871963,1.046374 1.157691,0 1.157691,-0.823741 0,-0.371055 -0.289423,-0.615951 -0.282001,-0.252317 -1.001847,-0.578845 -1.202217,-0.564003 -1.721694,-1.261586 -0.512055,-0.705004 -0.512055,-1.795905 0,-1.031532 0.564003,-1.862694 0.564003,-0.838584 1.543587,-1.254165 0.979585,-0.423002 2.270855,-0.423002 1.024111,0 1.83301,0.185527 0.81632,0.185527 1.476798,0.423002 z"
         style="font-style:italic;font-variant:normal;font-weight:900;font-stretch:normal;font-family:'Segoe UI';-inkscape-font-specification:'Segoe UI Heavy Italic';fill:#ffffff;stroke-width:0.379962"
         id="path836" />
    </g>
  </g>
</svg>
