<?xml version="1.0" encoding="UTF-8" standalone="no"?>
<svg
   xmlns:dc="http://purl.org/dc/elements/1.1/"
   xmlns:cc="http://creativecommons.org/ns#"
   xmlns:rdf="http://www.w3.org/1999/02/22-rdf-syntax-ns#"
   xmlns:svg="http://www.w3.org/2000/svg"
   xmlns="http://www.w3.org/2000/svg"
   xmlns:sodipodi="http://sodipodi.sourceforge.net/DTD/sodipodi-0.dtd"
   xmlns:inkscape="http://www.inkscape.org/namespaces/inkscape"
   width="512"
   height="512"
   viewBox="0 0 135.46666 135.46666"
   version="1.1"
   id="svg8"
   inkscape:version="1.0.2 (e86c870879, 2021-01-15, custom)"
   sodipodi:docname="vws-simple.svg">
  <defs
     id="defs2" />
  <sodipodi:namedview
     id="base"
     pagecolor="#ffffff"
     bordercolor="#666666"
     borderopacity="1.0"
     inkscape:pageopacity="0.0"
     inkscape:pageshadow="2"
     inkscape:zoom="1.0859767"
     inkscape:cx="559.00638"
     inkscape:cy="125.41952"
     inkscape:document-units="px"
     inkscape:current-layer="layer1"
     inkscape:document-rotation="0"
     showgrid="false"
     units="px"
     inkscape:window-width="2560"
     inkscape:window-height="1377"
     inkscape:window-x="-8"
     inkscape:window-y="-8"
     inkscape:window-maximized="1" />
  <metadata
     id="metadata5">
    <rdf:RDF>
      <cc:Work
         rdf:about="">
        <dc:format>image/svg+xml</dc:format>
        <dc:type
           rdf:resource="http://purl.org/dc/dcmitype/StillImage" />
        <dc:title></dc:title>
      </cc:Work>
    </rdf:RDF>
  </metadata>
  <g
     inkscape:label="Lager 1"
     inkscape:groupmode="layer"
     id="layer1">
    <path
       id="rect870"
       style="fill:#000000;fill-opacity:1;stroke:#ffffff;stroke-width:0;stroke-linejoin:round"
       d="m 6.2781328,27.052415 c -2.7516,0 -3.88257,1.927848 -2.53514,4.326903 L 28.649263,75.716845 c 0.23603,0.42057 0.53242,0.82398 0.87575,1.20782 l 1.51977,2.52845 34.50247,0.0268 -0.35138,0.0268 c 0,0 6.94679,-0.6546 10.48536,5.242744 2.00821,3.34675 8.78051,14.97094 13.08045,22.344621 0.39161,-0.4093 0.76579,-0.89426 1.10107,-1.48655 L 113.42829,64.089819 c 0.19044,-0.337697 0.36748,-0.691219 0.52304,-1.061773 l 17.77213,-31.648805 c 1.34757,-2.399068 0.21726,-4.326903 -2.53501,-4.326903 H 99.311553 c -2.75146,0 -6.05212,1.927835 -7.39955,4.326903 L 67.735843,74.429369 43.559553,31.379291 c -1.34758,-2.399068 -4.6481,-4.326903 -7.39956,-4.326903 z M 66.377003,85.545289 c -0.29504,9.8e-4 -0.47744,0.0268 -0.47744,0.0268 l -0.17167,0.0268 -31.02504,-0.0402 11.08941,18.488881 c 1.4507,2.41887 4.92181,4.36675 7.78446,4.36675 h 28.87481 c -4.57031,-7.83735 -10.2732,-17.635651 -12.01184,-20.533431 -1.25128,-2.08607 -3.1758,-2.33891 -4.06148,-2.33601 z" />
  </g>
</svg>
