<?xml version="1.0" encoding="UTF-8" standalone="no"?>
<svg fill="black"
	xmlns:dc="http://purl.org/dc/elements/1.1/" xmlns:cc="http://creativecommons.org/ns#"
	xmlns:rdf="http://www.w3.org/1999/02/22-rdf-syntax-ns#" xmlns:svg="http://www.w3.org/2000/svg"
	xmlns="http://www.w3.org/2000/svg" xmlns:sodipodi="http://sodipodi.sourceforge.net/DTD/sodipodi-0.dtd"
	xmlns:inkscape="http://www.inkscape.org/namespaces/inkscape" width="512" height="512"
	viewBox="0 0 135.46666 135.46666" version="1.1">
	<path
		d="m 6.2776525,27.016955 c -4.8092631,-0.0227 -2.5950633,4.947197 -0.8901225,7.258531 7.897815,14.000027 15.692897,28.061974 23.655024,42.023242 5.990807,9.394081 11.407703,19.181457 17.377399,28.595612 3.933965,4.79337 10.323295,3.20933 15.700366,3.48405 8.116721,0.009 16.248419,-0.0199 24.355432,0.0165 3.634795,-1.23588 4.517289,-5.52114 6.546426,-8.400889 13.038643,-22.806669 25.837483,-45.741693 38.701563,-68.646571 2.37473,-4.182051 -3.04296,-4.684995 -5.89303,-4.330485 -9.18992,0.05643 -18.38928,-0.114171 -27.573157,0.08768 C 92.31257,27.98428 90.639091,34.165034 87.874523,38.534508 81.160791,50.48799 74.44706,62.441462 67.73333,74.394937 59.452338,59.769219 51.368804,45.021537 42.96354,30.472574 39.285305,25.719975 33.076865,27.287621 27.91335,27.016955 c -7.211899,0 -14.423798,0 -21.6356975,0 z" />
</svg>