<svg xmlns:d="http://purl.org/dc/elements/1.1/" xmlns:c="http://creativecommons.org/ns#" xmlns:r="http://www.w3.org/1999/02/22-rdf-syntax-ns#" xmlns="http://www.w3.org/2000/svg" xmlns:x="http://www.w3.org/1999/xlink" width="1000" height="300" version="1.1" id="svg8"><defs><style>@import url('https://fonts.googleapis.com/css2?family=Raleway');</style><linearGradient id="linearGradient886"><stop style="stop-color:#e8e0ff;stop-opacity:0.2" offset="0" id="stop965"/><stop style="stop-color:#e8e0ff;stop-opacity:1" offset="1" id="stop967"/></linearGradient><linearGradient x:href="#linearGradient886" id="linearGradient972" x1="0" y1="0" x2="300" y2="1000" gradientUnits="userSpaceOnUse"/></defs><metadata id="metadata5"><r:rdf><c:work r:about=""><d:format>image/svg+xml</d:format><d:type r:resource="http://purl.org/dc/dcmitype/StillImage"/><d:title/></c:work></r:rdf></metadata><g id="backLayer"><rect style="fill:url(#linearGradient972);fill-opacity:1;stroke:#ffffff;stroke-width:0.336898;stroke-miterlimit:4;stroke-dasharray:none" id="rect872" width="1000" height="300" x="0" y="0"/></g><g id="mainLayer"><g id="title" transform="translate(302.1333312988281, 0)"><svg width="42" height="42" fill="#8c66ff" y="124.5" viewBox="0 0 264.58333 79.374999" version="1.1"><path d="m 6.3587262,-43.674173 c -5.63821198,0 -7.9560071,3.950467 -5.1947917,8.86651 L 52.2008,56.046942 c 0.483681,0.861832 1.09213,1.688487 1.795941,2.475019 l 3.114276,5.181216 70.700813,0.05496 -0.7203,0.05496 c 0,0 14.23526,-1.341391 21.48636,10.743193 4.11495,6.858023 17.9927,30.67784 26.80372,45.78769 0.8022,-0.83875 1.56894,-1.8325 2.25736,-3.04621 l 48.28972,-85.076342 c 0.39134,-0.691994 0.75218,-1.416416 1.07262,-2.175741 l 36.41779,-64.853412 c 2.76138,-4.916071 0.44466,-8.86651 -5.1946,-8.86651 h -61.22261 c -5.63821,0 -12.40162,3.950439 -15.16264,8.86651 L 132.29842,53.408708 82.757226,-34.807718 c -2.761188,-4.916071 -9.524398,-8.86651 -15.162638,-8.86651 z M 129.51096,76.186962 c -0.60461,0.002 -0.97836,0.05496 -0.97836,0.05496 l -0.35204,0.05496 -63.575232,-0.08245 22.72395,37.886648 c 2.972496,4.95666 10.085606,8.94815 15.951482,8.94815 h 59.16911 c -9.36539,-16.05997 -21.05146,-36.138214 -24.61413,-42.076226 -2.56502,-4.274725 -6.50765,-4.792787 -8.32259,-4.786851 z" style="stroke-width:27.4819"/></svg><text dx="63" y="150" style="font-size: 51px; font-family: 'Raleway', sans-serif; fill:#8c66ff; dominant-baseline: middle;"><tspan style="font-weight: bold;">VWS</tspan><tspan style="font-family: sans-serif;"> / </tspan><tspan dy="-5">core</tspan></text></g><text a:space="preserve" style="font-size:22px; font-family: sans-serif; fill:#8c66ff; text-anchor: middle; dominant-baseline: middle;" x="500" y="190" id="text-description">ASPX Webscraper APIs</text></g></svg>
